<svg width="100" height="100" viewBox="0 0 600 600" fill="none" xmlns="http://www.w3.org/2000/svg">
  <rect width="600" height="600" fill="black" />
  <path fill-rule="evenodd" clip-rule="evenodd"
    d="M206 272.5C206 272.667 206 272.833 206.001 273H206V320H176V350H206V374H176V404H206V437H246V404H276V374H246V350H276V320H246V273H246.002C246.271 234.846 277.283 204 315.5 204C353.717 204 384.729 234.846 384.998 273H385V437H425V273H424.999C424.999 272.911 425 272.823 425 272.734L425 272.5C425 212.025 375.975 163 315.5 163C255.025 163 206 212.025 206 272.5Z"
    fill="white" />
</svg>