<svg width="1000" height="1500" viewBox="0 0 1000 1500" fill="none" xmlns="http://www.w3.org/2000/svg">
  <rect width="1000" height="1500" fill="black" />
  <text fill="white" xml:space="preserve" style="white-space: pre" font-family="Fira Code" font-size="25"
    letter-spacing="0em">
    <tspan x="619" y="1375.35">|SwedishKroner|</tspan>
  </text>
  <text fill="white" xml:space="preserve" style="white-space: pre" font-family="Fira Code" font-size="25"
    letter-spacing="0em">
    <tspan x="619" y="1312.35">|Euro|</tspan>
  </text>
  <text fill="white" xml:space="preserve" style="white-space: pre" font-family="Fira Code" font-size="25"
    letter-spacing="0em">
    <tspan x="619" y="1249.35">|IndianRupee|</tspan>
  </text>
  <text fill="white" xml:space="preserve" style="white-space: pre" font-family="Fira Code" font-size="25"
    letter-spacing="0em">
    <tspan x="619" y="1186.35">|DanishKroner|</tspan>
  </text>
  <text fill="white" xml:space="preserve" style="white-space: pre" font-family="Fira Code" font-size="25"
    letter-spacing="0em">
    <tspan x="619" y="1123.35">|JapaneseYen|</tspan>
  </text>
  <text fill="white" xml:space="preserve" style="white-space: pre" font-family="Fira Code" font-size="25"
    letter-spacing="0em">
    <tspan x="619" y="1060.35">|DjiboutiFranc|</tspan>
  </text>
  <text fill="white" xml:space="preserve" style="white-space: pre" font-family="Fira Code" font-size="25"
    letter-spacing="0em">
    <tspan x="619" y="997.35">|ChineseYuan|</tspan>
  </text>
  <text fill="white" xml:space="preserve" style="white-space: pre" font-family="Fira Code" font-size="25"
    letter-spacing="0em">
    <tspan x="619" y="934.35">|USDollar|</tspan>
  </text>
  <text fill="white" xml:space="preserve" style="white-space: pre" font-family="Fira Code" font-size="25"
    letter-spacing="0em">
    <tspan x="619" y="871.35">|PoundSterling|</tspan>
  </text>
  <text fill="white" xml:space="preserve" style="white-space: pre" font-family="Fira Code" font-size="25"
    letter-spacing="0em">
    <tspan x="619" y="808.35">|SouthAfricanRand|</tspan>
  </text>
  <text fill="white" xml:space="preserve" style="white-space: pre" font-family="Fira Code" font-size="25"
    letter-spacing="0em">
    <tspan x="619" y="745.35">|CanadianDollar|</tspan>
  </text>
  <text fill="white" xml:space="preserve" style="white-space: pre" font-family="Fira Code" font-size="25"
    letter-spacing="0em">
    <tspan x="619" y="682.35">|NorwegianKroner|</tspan>
  </text>
  <text fill="white" xml:space="preserve" style="white-space: pre" font-family="Fira Code" font-size="25"
    letter-spacing="0em">
    <tspan x="619" y="619.35">|AustralianDollar|</tspan>
  </text>
  <text fill="white" xml:space="preserve" style="white-space: pre" font-family="Fira Code" font-size="25"
    letter-spacing="0em">
    <tspan x="619" y="556.35">|KenyanShilling|</tspan>
  </text>
  <text fill="white" xml:space="preserve" style="white-space: pre" font-family="Fira Code" font-size="25"
    letter-spacing="0em">
    <tspan x="619" y="493.35">|SaudiRiyal|</tspan>
  </text>
  <text fill="white" xml:space="preserve" style="white-space: pre" font-family="Fira Code" font-size="25"
    letter-spacing="0em">
    <tspan x="619" y="430.35">|KuwaitiDinar|</tspan>
  </text>
  <text fill="white" xml:space="preserve" style="white-space: pre" font-family="Fira Code" font-size="25"
    letter-spacing="0em">
    <tspan x="619" y="367.35">|SwissFranc|</tspan>
  </text>
  <text fill="white" xml:space="preserve" style="white-space: pre" font-family="Fira Code" font-size="25"
    letter-spacing="0em">
    <tspan x="619" y="304.35">|UAEDirham|</tspan>
  </text>
  <path
    d="M537.061 294.061C537.646 293.475 537.646 292.525 537.061 291.939L527.515 282.393C526.929 281.808 525.979 281.808 525.393 282.393C524.808 282.979 524.808 283.929 525.393 284.515L533.879 293L525.393 301.485C524.808 302.071 524.808 303.021 525.393 303.607C525.979 304.192 526.929 304.192 527.515 303.607L537.061 294.061ZM436 294.5H536V291.5H436V294.5Z"
    fill="white" />
  <path
    d="M537.061 357.061C537.646 356.475 537.646 355.525 537.061 354.939L527.515 345.393C526.929 344.808 525.979 344.808 525.393 345.393C524.808 345.979 524.808 346.929 525.393 347.515L533.879 356L525.393 364.485C524.808 365.071 524.808 366.021 525.393 366.607C525.979 367.192 526.929 367.192 527.515 366.607L537.061 357.061ZM436 357.5H536V354.5H436V357.5Z"
    fill="white" />
  <path
    d="M537.061 420.061C537.646 419.475 537.646 418.525 537.061 417.939L527.515 408.393C526.929 407.808 525.979 407.808 525.393 408.393C524.808 408.979 524.808 409.929 525.393 410.515L533.879 419L525.393 427.485C524.808 428.071 524.808 429.021 525.393 429.607C525.979 430.192 526.929 430.192 527.515 429.607L537.061 420.061ZM436 420.5H536V417.5H436V420.5Z"
    fill="white" />
  <path
    d="M537.061 483.061C537.646 482.475 537.646 481.525 537.061 480.939L527.515 471.393C526.929 470.808 525.979 470.808 525.393 471.393C524.808 471.979 524.808 472.929 525.393 473.515L533.879 482L525.393 490.485C524.808 491.071 524.808 492.021 525.393 492.607C525.979 493.192 526.929 493.192 527.515 492.607L537.061 483.061ZM436 483.5H536V480.5H436V483.5Z"
    fill="white" />
  <path
    d="M537.061 546.061C537.646 545.475 537.646 544.525 537.061 543.939L527.515 534.393C526.929 533.808 525.979 533.808 525.393 534.393C524.808 534.979 524.808 535.929 525.393 536.515L533.879 545L525.393 553.485C524.808 554.071 524.808 555.021 525.393 555.607C525.979 556.192 526.929 556.192 527.515 555.607L537.061 546.061ZM436 546.5H536V543.5H436V546.5Z"
    fill="white" />
  <path
    d="M537.061 609.061C537.646 608.475 537.646 607.525 537.061 606.939L527.515 597.393C526.929 596.808 525.979 596.808 525.393 597.393C524.808 597.979 524.808 598.929 525.393 599.515L533.879 608L525.393 616.485C524.808 617.071 524.808 618.021 525.393 618.607C525.979 619.192 526.929 619.192 527.515 618.607L537.061 609.061ZM436 609.5H536V606.5H436V609.5Z"
    fill="white" />
  <path
    d="M537.061 672.061C537.646 671.475 537.646 670.525 537.061 669.939L527.515 660.393C526.929 659.808 525.979 659.808 525.393 660.393C524.808 660.979 524.808 661.929 525.393 662.515L533.879 671L525.393 679.485C524.808 680.071 524.808 681.021 525.393 681.607C525.979 682.192 526.929 682.192 527.515 681.607L537.061 672.061ZM436 672.5H536V669.5H436V672.5Z"
    fill="white" />
  <path
    d="M537.061 735.061C537.646 734.475 537.646 733.525 537.061 732.939L527.515 723.393C526.929 722.808 525.979 722.808 525.393 723.393C524.808 723.979 524.808 724.929 525.393 725.515L533.879 734L525.393 742.485C524.808 743.071 524.808 744.021 525.393 744.607C525.979 745.192 526.929 745.192 527.515 744.607L537.061 735.061ZM436 735.5H536V732.5H436V735.5Z"
    fill="white" />
  <path
    d="M537.061 798.061C537.646 797.475 537.646 796.525 537.061 795.939L527.515 786.393C526.929 785.808 525.979 785.808 525.393 786.393C524.808 786.979 524.808 787.929 525.393 788.515L533.879 797L525.393 805.485C524.808 806.071 524.808 807.021 525.393 807.607C525.979 808.192 526.929 808.192 527.515 807.607L537.061 798.061ZM436 798.5H536V795.5H436V798.5Z"
    fill="white" />
  <path
    d="M537.061 861.061C537.646 860.475 537.646 859.525 537.061 858.939L527.515 849.393C526.929 848.808 525.979 848.808 525.393 849.393C524.808 849.979 524.808 850.929 525.393 851.515L533.879 860L525.393 868.485C524.808 869.071 524.808 870.021 525.393 870.607C525.979 871.192 526.929 871.192 527.515 870.607L537.061 861.061ZM436 861.5H536V858.5H436V861.5Z"
    fill="white" />
  <path
    d="M537.061 924.061C537.646 923.475 537.646 922.525 537.061 921.939L527.515 912.393C526.929 911.808 525.979 911.808 525.393 912.393C524.808 912.979 524.808 913.929 525.393 914.515L533.879 923L525.393 931.485C524.808 932.071 524.808 933.021 525.393 933.607C525.979 934.192 526.929 934.192 527.515 933.607L537.061 924.061ZM436 924.5H536V921.5H436V924.5Z"
    fill="white" />
  <path
    d="M537.061 987.061C537.646 986.475 537.646 985.525 537.061 984.939L527.515 975.393C526.929 974.808 525.979 974.808 525.393 975.393C524.808 975.979 524.808 976.929 525.393 977.515L533.879 986L525.393 994.485C524.808 995.071 524.808 996.021 525.393 996.607C525.979 997.192 526.929 997.192 527.515 996.607L537.061 987.061ZM436 987.5H536V984.5H436V987.5Z"
    fill="white" />
  <path
    d="M537.061 1050.06C537.646 1049.47 537.646 1048.53 537.061 1047.94L527.515 1038.39C526.929 1037.81 525.979 1037.81 525.393 1038.39C524.808 1038.98 524.808 1039.93 525.393 1040.51L533.879 1049L525.393 1057.49C524.808 1058.07 524.808 1059.02 525.393 1059.61C525.979 1060.19 526.929 1060.19 527.515 1059.61L537.061 1050.06ZM436 1050.5H536V1047.5H436V1050.5Z"
    fill="white" />
  <path
    d="M537.061 1113.06C537.646 1112.47 537.646 1111.53 537.061 1110.94L527.515 1101.39C526.929 1100.81 525.979 1100.81 525.393 1101.39C524.808 1101.98 524.808 1102.93 525.393 1103.51L533.879 1112L525.393 1120.49C524.808 1121.07 524.808 1122.02 525.393 1122.61C525.979 1123.19 526.929 1123.19 527.515 1122.61L537.061 1113.06ZM436 1113.5H536V1110.5H436V1113.5Z"
    fill="white" />
  <path
    d="M537.061 1176.06C537.646 1175.47 537.646 1174.53 537.061 1173.94L527.515 1164.39C526.929 1163.81 525.979 1163.81 525.393 1164.39C524.808 1164.98 524.808 1165.93 525.393 1166.51L533.879 1175L525.393 1183.49C524.808 1184.07 524.808 1185.02 525.393 1185.61C525.979 1186.19 526.929 1186.19 527.515 1185.61L537.061 1176.06ZM436 1176.5H536V1173.5H436V1176.5Z"
    fill="white" />
  <path
    d="M537.061 1239.06C537.646 1238.47 537.646 1237.53 537.061 1236.94L527.515 1227.39C526.929 1226.81 525.979 1226.81 525.393 1227.39C524.808 1227.98 524.808 1228.93 525.393 1229.51L533.879 1238L525.393 1246.49C524.808 1247.07 524.808 1248.02 525.393 1248.61C525.979 1249.19 526.929 1249.19 527.515 1248.61L537.061 1239.06ZM436 1239.5H536V1236.5H436V1239.5Z"
    fill="white" />
  <path
    d="M537.061 1302.06C537.646 1301.47 537.646 1300.53 537.061 1299.94L527.515 1290.39C526.929 1289.81 525.979 1289.81 525.393 1290.39C524.808 1290.98 524.808 1291.93 525.393 1292.51L533.879 1301L525.393 1309.49C524.808 1310.07 524.808 1311.02 525.393 1311.61C525.979 1312.19 526.929 1312.19 527.515 1311.61L537.061 1302.06ZM436 1302.5H536V1299.5H436V1302.5Z"
    fill="white" />
  <path
    d="M537.061 1365.06C537.646 1364.47 537.646 1363.53 537.061 1362.94L527.515 1353.39C526.929 1352.81 525.979 1352.81 525.393 1353.39C524.808 1353.98 524.808 1354.93 525.393 1355.51L533.879 1364L525.393 1372.49C524.808 1373.07 524.808 1374.02 525.393 1374.61C525.979 1375.19 526.929 1375.19 527.515 1374.61L537.061 1365.06ZM436 1365.5H536V1362.5H436V1365.5Z"
    fill="white" />
  <text fill="white" xml:space="preserve" style="white-space: pre" font-family="Fira Code" font-size="25"
    letter-spacing="0em">
    <tspan x="49" y="1375.35">1 Swedish Kroner &#x1f1f8;&#x1f1ea;</tspan>
  </text>
  <text fill="white" xml:space="preserve" style="white-space: pre" font-family="Fira Code" font-size="25"
    letter-spacing="0em">
    <tspan x="49" y="1312.35">1 Euro &#x1f1ea;&#x1f1fa;</tspan>
  </text>
  <text fill="white" xml:space="preserve" style="white-space: pre" font-family="Fira Code" font-size="25"
    letter-spacing="0em">
    <tspan x="49" y="1249.35">1 Indian Rupee &#x1f1ee;&#x1f1f3;</tspan>
  </text>
  <text fill="white" xml:space="preserve" style="white-space: pre" font-family="Fira Code" font-size="25"
    letter-spacing="0em">
    <tspan x="49" y="1186.35">1 Danish Kroner &#x1f1e9;&#x1f1f0;</tspan>
  </text>
  <text fill="white" xml:space="preserve" style="white-space: pre" font-family="Fira Code" font-size="25"
    letter-spacing="0em">
    <tspan x="49" y="1123.35">1 Japanese Yen &#x1f1ef;&#x1f1f5;</tspan>
  </text>
  <text fill="white" xml:space="preserve" style="white-space: pre" font-family="Fira Code" font-size="25"
    letter-spacing="0em">
    <tspan x="49" y="1060.35">1 Djibouti Franc &#x1f1e9;&#x1f1ef;</tspan>
  </text>
  <text fill="white" xml:space="preserve" style="white-space: pre" font-family="Fira Code" font-size="25"
    letter-spacing="0em">
    <tspan x="49" y="997.35">1 Chinese Yuan &#x1f1e8;&#x1f1f3;</tspan>
  </text>
  <text fill="white" xml:space="preserve" style="white-space: pre" font-family="Fira Code" font-size="25"
    letter-spacing="0em">
    <tspan x="49" y="934.35">1 US Dollar &#x1f1fa;&#x1f1f8;</tspan>
  </text>
  <text fill="white" xml:space="preserve" style="white-space: pre" font-family="Fira Code" font-size="25"
    letter-spacing="0em">
    <tspan x="49" y="871.35">1 Pound Sterling &#x1f1ec;&#x1f1e7;</tspan>
  </text>
  <text fill="white" xml:space="preserve" style="white-space: pre" font-family="Fira Code" font-size="25"
    letter-spacing="0em">
    <tspan x="49" y="808.35">1 South Afrian Rand &#x1f1ff;&#x1f1e6;</tspan>
  </text>
  <text fill="white" xml:space="preserve" style="white-space: pre" font-family="Fira Code" font-size="25"
    letter-spacing="0em">
    <tspan x="49" y="745.35">1 Canadian Dollar &#x1f1e8;&#x1f1e6;</tspan>
  </text>
  <text fill="white" xml:space="preserve" style="white-space: pre" font-family="Fira Code" font-size="25"
    letter-spacing="0em">
    <tspan x="49" y="682.35">1 Norwegian Kroner &#x1f1f3;&#x1f1f4;</tspan>
  </text>
  <text fill="white" xml:space="preserve" style="white-space: pre" font-family="Fira Code" font-size="25"
    letter-spacing="0em">
    <tspan x="49" y="619.35">1 Ausyralian Dollar &#x1f1e6;&#x1f1fa;</tspan>
  </text>
  <text fill="white" xml:space="preserve" style="white-space: pre" font-family="Fira Code" font-size="25"
    letter-spacing="0em">
    <tspan x="49" y="556.35">1 Kenyan Shilling &#x1f1f0;&#x1f1ea;</tspan>
  </text>
  <text fill="white" xml:space="preserve" style="white-space: pre" font-family="Fira Code" font-size="25"
    letter-spacing="0em">
    <tspan x="49" y="493.35">1 Saudi Riyal &#x1f1f8;&#x1f1e6;</tspan>
  </text>
  <text fill="white" xml:space="preserve" style="white-space: pre" font-family="Fira Code" font-size="25"
    letter-spacing="0em">
    <tspan x="49" y="430.35">1 Kuwaiti Dinar &#x1f1f0;&#x1f1fc;</tspan>
  </text>
  <text fill="white" xml:space="preserve" style="white-space: pre" font-family="Fira Code" font-size="25"
    letter-spacing="0em">
    <tspan x="49" y="367.35">1 Swiss Franc &#x1f1e8;&#x1f1ed;</tspan>
  </text>
  <text fill="white" xml:space="preserve" style="white-space: pre" font-family="Fira Code" font-size="25"
    letter-spacing="0em">
    <tspan x="49" y="304.35">1 UAE Dirham &#x1f1e6;&#x1f1ea;</tspan>
  </text>
  <text fill="white" xml:space="preserve" style="white-space: pre" font-family="Fira Code" font-size="31"
    font-weight="bold" letter-spacing="0em">
    <tspan x="554.346" y="154.354">SELLING</tspan>
  </text>
  <text fill="white" xml:space="preserve" style="white-space: pre" font-family="Fira Code" font-size="31"
    letter-spacing="0em">
    <tspan x="219.764" y="154.354"> FOREIGN EXCHANGE </tspan>
    <tspan x="684.461" y="154.354"> RATE FOR TODAY</tspan>
  </text>
  <text fill="white" xml:space="preserve" style="white-space: pre" font-family="Fira Code" font-size="31"
    font-weight="bold" letter-spacing="0em">
    <tspan x="164" y="154.354">ETB</tspan>
  </text>
  <path fill-rule="evenodd" clip-rule="evenodd"
    d="M57.7953 141.193C57.7953 141.212 57.7954 141.23 57.7955 141.249H57.7952V155.028H49V163.823H57.7952V170.859H49V179.655H57.7952V189.329H69.5221V179.655H78.3173V170.859H69.5221V163.823H78.3173V155.028H69.5221V141.249H69.5226C69.6014 130.063 78.6934 121.02 89.8976 121.02C101.102 121.02 110.194 130.063 110.273 141.249H110.273V189.329H122V141.249H122L122 141.18L122 141.102C122 123.373 107.627 109 89.8976 109C72.1679 109 57.7952 123.373 57.7952 141.102C57.7952 141.133 57.7952 141.163 57.7953 141.193Z"
    fill="white" />
</svg>